<svg xmlns="http://www.w3.org/2000/svg" viewBox="0 0 962.72 396"><defs><style>.cls-1{fill:#fcd0e1;}.cls-2{fill:#e22d6f;}</style></defs><title>Asset 4</title><g id="Layer_2" data-name="Layer 2"><g id="Info"><circle class="cls-1" cx="122" cy="274" r="122"/><circle class="cls-1" cx="869" cy="110" r="78"/><g id="Layer_4" data-name="Layer 4"><circle class="cls-2" cx="874.36" cy="1.36" r="1.36"/><circle class="cls-2" cx="891.86" cy="1.36" r="1.36"/><circle class="cls-2" cx="909.37" cy="1.36" r="1.36"/><circle class="cls-2" cx="926.87" cy="1.36" r="1.36"/><circle class="cls-2" cx="926.87" cy="18.86" r="1.36"/><circle class="cls-2" cx="909.37" cy="18.86" r="1.36"/><circle class="cls-2" cx="891.86" cy="18.86" r="1.36"/><circle class="cls-2" cx="874.36" cy="18.86" r="1.36"/><circle class="cls-2" cx="874.36" cy="36.37" r="1.36"/><circle class="cls-2" cx="891.86" cy="36.37" r="1.36"/><circle class="cls-2" cx="909.37" cy="36.37" r="1.36"/><circle class="cls-2" cx="926.87" cy="36.37" r="1.36"/><circle class="cls-2" cx="926.87" cy="53.87" r="1.36"/><circle class="cls-2" cx="909.37" cy="53.87" r="1.36"/><circle class="cls-2" cx="891.86" cy="53.87" r="1.36"/><circle class="cls-2" cx="874.36" cy="53.87" r="1.36"/><circle class="cls-2" cx="943.86" cy="1.36" r="1.36"/><circle class="cls-2" cx="961.36" cy="1.36" r="1.36"/><circle class="cls-2" cx="961.36" cy="18.86" r="1.36"/><circle class="cls-2" cx="943.86" cy="18.86" r="1.36"/><circle class="cls-2" cx="943.86" cy="36.37" r="1.36"/><circle class="cls-2" cx="961.36" cy="36.37" r="1.36"/><circle class="cls-2" cx="961.36" cy="53.87" r="1.36"/><circle class="cls-2" cx="943.86" cy="53.87" r="1.36"/><circle class="cls-2" cx="874.36" cy="72.72" r="1.36"/><circle class="cls-2" cx="891.86" cy="72.72" r="1.36"/><circle class="cls-2" cx="909.37" cy="72.72" r="1.36"/><circle class="cls-2" cx="926.87" cy="72.72" r="1.36"/><circle class="cls-2" cx="926.87" cy="90.23" r="1.36"/><circle class="cls-2" cx="909.37" cy="90.23" r="1.36"/><circle class="cls-2" cx="891.86" cy="90.23" r="1.36"/><circle class="cls-2" cx="874.36" cy="90.23" r="1.36"/><circle class="cls-2" cx="943.86" cy="72.72" r="1.36"/><circle class="cls-2" cx="961.36" cy="72.72" r="1.36"/><circle class="cls-2" cx="961.36" cy="90.23" r="1.36"/><circle class="cls-2" cx="943.86" cy="90.23" r="1.36"/></g></g></g></svg>