<svg xmlns="http://www.w3.org/2000/svg" viewBox="0 0 993.59 449.91"><defs><style>.cls-1{fill:#fce0f9;}.cls-2,.cls-3,.cls-4,.cls-5,.cls-6,.cls-7,.cls-8{fill:none;stroke:#fce0f9;stroke-linecap:round;stroke-linejoin:round;}.cls-2{stroke-width:6px;}.cls-3{stroke-width:3px;}.cls-4{stroke-width:8px;}.cls-5{stroke-width:10px;}.cls-6{stroke-width:2px;}.cls-7{stroke-width:0.25px;}</style></defs><title>Asset 6</title><g id="Layer_2" data-name="Layer 2"><g id="Layer_8" data-name="Layer 8"><path class="cls-1" d="M988.25,205.48,876.42,344.91a24.14,24.14,0,0,1-37.41.31L701.71,179.6c-13.81-16.66-.42-41.67,21.1-39.41l249.13,26.19A24.14,24.14,0,0,1,988.25,205.48Z"/><g id="Layer_9" data-name="Layer 9"><polygon class="cls-2" points="75.05 416.8 70.42 446.91 49.34 424.93 75.05 416.8"/><polygon class="cls-3" points="34.27 391.88 17.81 389.36 29.83 377.82 34.27 391.88"/><polygon class="cls-4" points="66.86 393.79 36.53 354 86.56 354.13 66.86 393.79"/><polygon class="cls-5" points="114.56 380 124.75 304.51 178.48 358.52 114.56 380"/><polygon class="cls-6" points="35.73 413.28 22.55 411.26 32.17 402.03 35.73 413.28"/><polygon class="cls-7" points="13.57 415.88 13.45 416.64 12.93 416.09 13.57 415.88"/><polygon class="cls-8" points="3.15 388.07 0.5 382.88 6.23 383.93 3.15 388.07"/><polygon class="cls-8" points="3.77 397.8 5.51 401.2 1.75 400.51 3.77 397.8"/><polygon class="cls-3" points="104.95 392.3 89.33 403.23 90.16 384.19 104.95 392.3"/><polygon class="cls-3" points="56.44 405.09 67.1 404.64 60.98 413.38 56.44 405.09"/></g><circle class="cls-1" cx="96.4" cy="76.5" r="76.5"/></g></g></svg>